<svg xmlns="http://www.w3.org/2000/svg" width="1024" height="1024" preserveAspectRatio="none" style="display:block" viewBox="0 0 2048 2048"><path fill="#2284E8" d="M271.881 658.471c6.297-.785 28.606-.293 36.061-.286l76.129.074 248.273-.053c42.279.13 73.034 4.173 104.087 35.614 33.827 34.25 30.814 70.866 31.165 114.551q.337 47.203.032 94.406l.049 241.883c-.249 31.72-9.963 58.22-33.094 80.59-35.554 34.38-72.064 32.96-117.344 32.2l-277.389.05-71.257.09c-12.8 0-36.205.39-48.234-1.89a106.04 106.04 0 0 1-52.714-27.21c-22.964-21.95-34.986-50.39-34.999-81.94-.011-27.91.006-55.88-.026-83.78l-.033-180.34-.051-79.898c-.006-42.215-.859-74.864 31.97-108.135 32.372-32.808 63.627-35.557 107.375-35.926m344.288 483.969c22.129.45 46.289.94 48.052-27.47 1.452-28 .574-56.27.592-84.34.005-9.31-1.559-18.76-8.858-25.28-11.98-10.689-36.234-7.534-51.941-7.482l-64.081-.062c-8.78-.044-23.901.321-32.309-.319-31.828.727-42.56 4.563-42.036 39.873.666 29.33-2.063 60.09 1.935 89.06.975 7.07 11.723 14.76 18.72 15 42.35 1.42 87.639 1.91 129.926 1.02M308.585 883.588c39.194-4.872 67.026-40.582 62.18-79.779s-40.537-67.053-79.737-62.233c-39.237 4.824-67.126 40.556-62.275 79.79 4.85 39.235 40.601 67.099 79.832 62.222m97.549-76.462c-.502 12.52-1.141 15.872 9.564 23.557l1.6.174c11.678 1.201 29.808.674 41.934.672l73.197-.067c12.326-.025 26.334-1.469 38.384.981 6.03 1.226 11.597 4.254 15.596 8.978 17.002 20.087-.947 92.959 10.148 116.004 2.925 6.076 7.203 8.871 13.298 11.213 32.941.457 25.519-29.988 26.532-53.155.583-16.939-.685-36.026.019-52.692 1.219-28.897-11.232-59.414-41.691-66.72-15.62-3.747-41.663-2.454-58.393-2.518l-98.015-.119c-15.887.728-23.232-.673-32.173 13.692m8.311 279.764c18.962-4.26 19.567-21.71 5.422-33.35-.402-.1-.802-.19-1.205-.28-23.922-5.22-66.815 3.61-86.376-3.58-4.279-1.58-8.049-4.92-10.561-8.68-12.795-19.15 1.17-88.985-7.01-114.06-2.233-6.846-7.312-13.078-14.683-14.542-3.067-.609-6.375-.475-9.484-.317-6.085 2.043-11.975 4.552-14.806 10.717-4.145 9.03-3.517 101.062-1.849 115.292.73 6.22 2.56 12.13 5.249 17.78 6.418 13.49 16.765 23.04 31.01 27.95 17.731 6.11 81.087 3.15 104.293 3.07"/><path fill="#00356D" d="M1128.24 688.06c23.07.656 47 .215 70.12.023 7.58 21.878 29.66 63.862 40.05 86.202 9.17 19.703 26.14 60.959 36.31 78.252 21.99-52.08 50.36-113.352 75.51-164.401 21.62-.241 43.15.283 64.9-.058-.46 12.505-.17 25.957-.07 38.504.61 76.403-.75 152.995.14 229.37l-55 .135.03-129.337c-.08-18.061-.39-34.868 1.31-52.885-23.32 55.867-50.9 112.372-73.46 168.062l-29.87.24c-16.96-37.09-33.7-74.279-50.23-111.566-7.86-17.959-17.94-39.724-24.33-57.985 1.68 59.064-.12 123.571.3 183.36l-55.82.2z"/><path fill="#00356D" d="M1570.77 682.397c44.12-4.695 92.68 11.557 119.1 48.001 4.02 5.554 7.42 11.353 10.85 17.273-11.7 8.49-36.38 21.752-50.15 30.521-14.35-23.92-30.06-37.949-59.18-41.181-18.92-2.155-38.61 3.54-53.19 15.779-33.82 28.391-35.62 98.688-7.41 131.255 13.15 15.173 32.73 24.209 52.72 25.073 17.76.768 39.36-2.517 53.05-14.909 12.65-11.599 13.46-24.35 13.95-40.091-21.43-.76-47.46-.532-69.01-.121.25-15.095.11-30.512.14-45.634l-.06-1.343c2.47-1.813 110.32-1.03 123.23-1.186.2 34.464 5.29 89.943-17.74 115.169-73.99 81.017-226.07 39.896-235.5-75.914-7.21-88.52 29.99-152.498 119.2-162.692"/><path fill="#00356D" d="M892.285 688.239c23.058.314 46.286-.191 69.447.002 35.779.109 69.308-3.2 100.388 18.363 38.93 27.011 44.26 89.055 16.69 125.906-18 24.062-42.76 32.691-71.56 37.023-12.413 1.344-43.635.458-57.251.403l-.003 86.099a5649 5649 0 0 0-57.781.142zm57.875 131.318c26.441-.682 52.57 3.766 74.51-11.53 21.34-21.63 15.88-62.204-17.64-66.738-18.615-2.518-38.281-1.485-57.126-1.339.063 26.077-.341 53.661.256 79.607"/><path fill="#00356D" d="M1718.81 688.126c35.33.57 71.92.081 107.34.08 35.65.255 71.3.238 106.94-.05-.08 10.748-.8 42.983.91 51.663l-77.18.152c.56 45.564.12 92.135.17 137.779l.15 78.26-57.1.16.07-216.466c-27.01.423-54.7.186-81.77.254 1.36-13.166.57-37.764.47-51.832"/><path fill="#2284E8" d="M1112.68 1102.31c41.91-3.2 67.85 24.28 67.51 64.71-.28 34.05-17.19 54.9-50.94 61.9-17.09 1.13-31.81-.34-46.51-10.6-27.83-19.43-32.42-67.03-12.32-93.29 10.75-14.05 24.94-20.52 42.26-22.72m11.84 101.6c9.27-2.35 18.86-6.67 23.21-15.63 13.45-27.7 1.8-62.93-32.91-61.18-9.3 1.95-18.08 5.39-22.84 14.24-14.37 26.7-3.64 66.55 32.54 62.57"/><path fill="#2284E8" d="M1266.06 1105.97c8.21-.17 16.67.04 24.91.13 4.27 19.07 18.16 62.02 25.23 81.25 1.56-3.7 2.82-7.93 3.98-11.79 7.02-23.36 15.13-46.32 22.68-69.49 9.03-.25 18.59-.05 27.67 0-1.14 5.86-8.09 24.71-10.47 31.69-10.22 25.84-22.74 61.23-31.28 87.68-8.46-.02-16.91.05-25.37.2-5.96-22.97-18.33-57.16-25.81-81.08-6.72 24.55-17.45 56.59-26.32 80.65l-25.97.51c-3.73-10.45-40.63-117.14-40.45-119.29 8.54-.64 19.47-.37 28.2-.38 4.02 17.5 19.83 65.63 26.11 83.17 1.8-4.69 3.51-10.36 4.99-15.21 6.91-22.65 15.61-45.26 21.9-68.04"/><path fill="#2284E8" d="M1475.36 1060.37c14.28-.87 57.7 3.91 61.54 20.2-1.66 6.74-8.06 15.92-11.88 22.07-12.05-7.64-21.7-14.09-36.34-15.71-13.57-1.5-33.89.36-33.76 18.16.1 14.29 18.66 18.48 29.5 21.91 14.91 4.73 30.31 8.31 41.61 19.91 16.57 16.55 16.33 52.07-1.53 67.75-12.15 10.67-27.34 14.97-43.25 14.4-25.86.26-39.98-5.83-60.88-20.86 4.04-7.49 10.59-16.29 15.57-23.4 18.5 18.39 55.29 29.76 73.72 5.13 3.13-26.48-10.14-26.36-32.22-34.12-11.54-4.05-20.87-6-31.65-12.44-22.42-13.41-25.81-41.66-11.93-62.44 9.98-14.48 24.71-17.75 41.5-20.56"/><path fill="#2284E8" d="M1881.96 1102.42c11.78-.77 25.9 3.91 34.43 12.04 16.26 15.54 16.58 36.16 17.08 56.94-25.89-.79-54.4.14-80.63.05 5.1 29.01 24.37 40.28 53.31 28.64 4.29-1.73 10.65-6.59 14.83-7.11l4.21 4.99c2.34 3.72 6.57 8.62 9.43 12.16a64.65 64.65 0 0 1-41.71 18.91c-39.56 2.72-64.37-21.15-66.71-60.25-1.07-17.91 3.49-35.35 15.81-48.8 11.4-12.45 23.41-16.82 39.95-17.57m-28.35 48.46 29.14-.1c7.98-.03 16.88.14 24.78-.17-4.21-16.54-10.39-26.52-29.61-24.51-14.88 3.14-19.37 11.33-24.31 24.78"/><path fill="#2284E8" d="m905.515 1061.51 84.236-.21c-.318 8.35-1.095 18.01-.042 26.17-24.84-.22-49.68-.27-74.52-.14.455 11.62.587 28.09-.049 39.55 14.672-1.68 50.176-.85 66.711-.79-.463 7.47-.128 17.98-.112 25.67-7.02-.54-14.879-.42-21.989-.46h-44.452c.55 24.08.316 50 .109 74.12-8.891-.33-17.699-.03-26.589.17-.884-45.6.206-91.5-.116-137.13-.063-8.85.282-17.67-.534-26.5z"/><path fill="#2284E8" d="M1640.92 1106.13c9.49-.19 19.18-.14 28.68-.2-.79 14.37-.43 30.5-.39 45.04-.09 24.89.1 49.78.57 74.66-8.59-.52-16.76-.21-25.34 0l-1.82-13.92c-10.73 10.3-21.17 17.31-36.51 17.58-18.76.34-35.07-4.91-43.14-23.27-6.29-14.29-5.35-31.74-5.52-47.02-.19-17.68.24-35.28.66-52.82h27.67c-2.15 21.41-1.02 55.5.33 77.23 1.44 23.19 32.07 26.77 47.95 10.61 2.97-3.06 5.04-6.88 5.96-11.04 2.06-8.87.99-63.89.9-76.85"/><path fill="#2284E8" d="m1782.1 1082.63 1.17-.02c.68 7.14.51 16.93.59 24.29 10.58-.93 21.34-.71 31.97-.69-.51 8.49-.45 14.39-.16 22.92-10.58-.04-21.07.64-31.69.15-.11 16.42-1.33 52.44 1.62 67.06 9.14 10.63 18.34 7.52 30.67 5.25 1.87 7.53 3.31 15.23 3.38 22.99-3.47 1.07-6.36 1.8-9.91 2.64a66.3 66.3 0 0 1-17.13 1.73c-38.12-.75-34.36-33.98-34.33-61.29.02-12.99-.2-25.82.49-38.8l-21.69.58c.12-7.53-.09-15.59-.16-23.16l20.89.1.43-23.28c8.27.03 15.61-.02 23.86-.47"/><path fill="#2284E8" d="M1010.08 1061.32c5.45.67 20.76.48 26.78.57l-.08 163.72c-9.23-.46-17.27-.28-26.46-.08-1.68-52.35-.3-111.49-.24-164.21"/><path fill="#2284E8" d="M1719.74 1106.04c-.7 37.06 1.03 76.81-.35 113.16.22 2.42.15 2.49-.26 4.91-4.1 2.61-19.76 1.35-26.05 1.42.62-39.21-.07-80.21-.09-119.55z"/><path fill="#2284E8" d="M1700.83 1062.15c2.44-.19 9.16-.84 11.27.09 16.22 7.12 15.55 21.49 1.04 29.25-8.89.62-16.51.72-21.62-7.81-5.71-9.56 1.47-17.18 9.31-21.53"/></svg>